<mxfile host="app.diagrams.net" modified="2024-03-20T05:58:30.325Z" agent="Mozilla/5.0 (Macintosh; Intel Mac OS X 10_15_7) AppleWebKit/537.36 (KHTML, like Gecko) Chrome/122.0.0.0 Safari/537.36" etag="HSZESSi1qP9lwG_FvJrQ" version="24.0.7" type="github" pages="3">
  <diagram name="模型分信息获取" id="fExOfupDMhsimvUawOej">
    <mxGraphModel dx="1434" dy="786" grid="1" gridSize="10" guides="1" tooltips="1" connect="1" arrows="1" fold="1" page="1" pageScale="1" pageWidth="827" pageHeight="1169" math="0" shadow="0">
      <root>
        <mxCell id="0" />
        <mxCell id="1" parent="0" />
        <mxCell id="_bpvFqm342tQ-KyPZpiV-6" style="edgeStyle=orthogonalEdgeStyle;rounded=0;orthogonalLoop=1;jettySize=auto;html=1;" parent="1" source="_bpvFqm342tQ-KyPZpiV-1" target="_bpvFqm342tQ-KyPZpiV-5" edge="1">
          <mxGeometry relative="1" as="geometry" />
        </mxCell>
        <mxCell id="_bpvFqm342tQ-KyPZpiV-7" value="读取" style="edgeLabel;html=1;align=center;verticalAlign=middle;resizable=0;points=[];" parent="_bpvFqm342tQ-KyPZpiV-6" vertex="1" connectable="0">
          <mxGeometry x="-0.0904" relative="1" as="geometry">
            <mxPoint as="offset" />
          </mxGeometry>
        </mxCell>
        <mxCell id="_bpvFqm342tQ-KyPZpiV-1" value="" style="image;sketch=0;aspect=fixed;html=1;points=[];align=center;fontSize=12;image=img/lib/mscae/Cache_Redis_Product.svg;" parent="1" vertex="1">
          <mxGeometry x="390" y="300" width="71.43" height="60" as="geometry" />
        </mxCell>
        <mxCell id="_bpvFqm342tQ-KyPZpiV-3" style="edgeStyle=orthogonalEdgeStyle;rounded=0;orthogonalLoop=1;jettySize=auto;html=1;" parent="1" source="_bpvFqm342tQ-KyPZpiV-2" target="_bpvFqm342tQ-KyPZpiV-1" edge="1">
          <mxGeometry relative="1" as="geometry" />
        </mxCell>
        <mxCell id="_bpvFqm342tQ-KyPZpiV-4" value="写入" style="edgeLabel;html=1;align=center;verticalAlign=middle;resizable=0;points=[];" parent="_bpvFqm342tQ-KyPZpiV-3" vertex="1" connectable="0">
          <mxGeometry x="-0.08" y="-1" relative="1" as="geometry">
            <mxPoint as="offset" />
          </mxGeometry>
        </mxCell>
        <mxCell id="_bpvFqm342tQ-KyPZpiV-2" value="立案&lt;br&gt;SaveCases&amp;amp;异步查询模型分" style="rounded=0;whiteSpace=wrap;html=1;" parent="1" vertex="1">
          <mxGeometry x="80" y="305" width="160" height="50" as="geometry" />
        </mxCell>
        <mxCell id="_bpvFqm342tQ-KyPZpiV-5" value="推送&lt;br&gt;LimitFilter" style="rounded=0;whiteSpace=wrap;html=1;" parent="1" vertex="1">
          <mxGeometry x="610" y="310" width="90" height="40" as="geometry" />
        </mxCell>
        <mxCell id="_bpvFqm342tQ-KyPZpiV-8" value="kv结构&lt;br style=&quot;border-color: var(--border-color); font-size: 11px;&quot;&gt;过期时间：1天（按模型分刷新频率）&lt;br&gt;key：mobile，value：模型分" style="text;html=1;align=center;verticalAlign=middle;resizable=0;points=[];autosize=1;strokeColor=none;fillColor=none;" parent="1" vertex="1">
          <mxGeometry x="320" y="353" width="220" height="60" as="geometry" />
        </mxCell>
      </root>
    </mxGraphModel>
  </diagram>
  <diagram id="nzv_mZmoA_woe8Cn__wj" name="存储架构">
    <mxGraphModel dx="1434" dy="786" grid="1" gridSize="10" guides="1" tooltips="1" connect="1" arrows="1" fold="1" page="1" pageScale="1" pageWidth="827" pageHeight="1169" math="0" shadow="0">
      <root>
        <mxCell id="0" />
        <mxCell id="1" parent="0" />
        <mxCell id="xNk3sKYP0GpP5RXeMubR-1" value="服务内缓存（内存缓存）" style="rounded=0;whiteSpace=wrap;html=1;verticalAlign=top;" parent="1" vertex="1">
          <mxGeometry x="140" y="250" width="490" height="100" as="geometry" />
        </mxCell>
        <mxCell id="xNk3sKYP0GpP5RXeMubR-4" value="redis缓存" style="rounded=0;whiteSpace=wrap;html=1;verticalAlign=top;" parent="1" vertex="1">
          <mxGeometry x="140" y="410" width="490" height="100" as="geometry" />
        </mxCell>
        <mxCell id="xNk3sKYP0GpP5RXeMubR-5" value="mysql存储" style="rounded=0;whiteSpace=wrap;html=1;verticalAlign=top;" parent="1" vertex="1">
          <mxGeometry x="140" y="570" width="140" height="100" as="geometry" />
        </mxCell>
        <mxCell id="xNk3sKYP0GpP5RXeMubR-7" value="限频配置" style="rounded=0;whiteSpace=wrap;html=1;" parent="1" vertex="1">
          <mxGeometry x="160" y="290" width="90" height="40" as="geometry" />
        </mxCell>
        <mxCell id="xNk3sKYP0GpP5RXeMubR-14" style="edgeStyle=orthogonalEdgeStyle;rounded=0;orthogonalLoop=1;jettySize=auto;html=1;exitX=0.5;exitY=0;exitDx=0;exitDy=0;entryX=0.5;entryY=1;entryDx=0;entryDy=0;dashed=1;" parent="1" source="xNk3sKYP0GpP5RXeMubR-8" target="xNk3sKYP0GpP5RXeMubR-7" edge="1">
          <mxGeometry relative="1" as="geometry" />
        </mxCell>
        <mxCell id="xNk3sKYP0GpP5RXeMubR-15" value="缓存所有" style="edgeLabel;html=1;align=center;verticalAlign=middle;resizable=0;points=[];" parent="xNk3sKYP0GpP5RXeMubR-14" vertex="1" connectable="0">
          <mxGeometry x="0.6444" y="1" relative="1" as="geometry">
            <mxPoint as="offset" />
          </mxGeometry>
        </mxCell>
        <mxCell id="xNk3sKYP0GpP5RXeMubR-8" value="限频配置" style="rounded=0;whiteSpace=wrap;html=1;" parent="1" vertex="1">
          <mxGeometry x="160" y="610" width="90" height="40" as="geometry" />
        </mxCell>
        <mxCell id="xNk3sKYP0GpP5RXeMubR-9" value="模型分（当天）" style="rounded=0;whiteSpace=wrap;html=1;" parent="1" vertex="1">
          <mxGeometry x="340" y="440" width="100" height="40" as="geometry" />
        </mxCell>
        <mxCell id="xNk3sKYP0GpP5RXeMubR-10" value="频率信息（最大支持180天）" style="rounded=0;whiteSpace=wrap;html=1;" parent="1" vertex="1">
          <mxGeometry x="510" y="440" width="110" height="40" as="geometry" />
        </mxCell>
        <mxCell id="xNk3sKYP0GpP5RXeMubR-12" value="风控服务" style="rounded=0;whiteSpace=wrap;html=1;verticalAlign=top;" parent="1" vertex="1">
          <mxGeometry x="320" y="570" width="140" height="100" as="geometry" />
        </mxCell>
        <mxCell id="xNk3sKYP0GpP5RXeMubR-16" style="edgeStyle=orthogonalEdgeStyle;rounded=0;orthogonalLoop=1;jettySize=auto;html=1;exitX=0.5;exitY=0;exitDx=0;exitDy=0;dashed=1;" parent="1" source="xNk3sKYP0GpP5RXeMubR-13" target="xNk3sKYP0GpP5RXeMubR-9" edge="1">
          <mxGeometry relative="1" as="geometry" />
        </mxCell>
        <mxCell id="xNk3sKYP0GpP5RXeMubR-17" value="缓存当天" style="edgeLabel;html=1;align=center;verticalAlign=middle;resizable=0;points=[];" parent="xNk3sKYP0GpP5RXeMubR-16" vertex="1" connectable="0">
          <mxGeometry x="0.1231" y="-1" relative="1" as="geometry">
            <mxPoint as="offset" />
          </mxGeometry>
        </mxCell>
        <mxCell id="xNk3sKYP0GpP5RXeMubR-13" value="模型分" style="rounded=0;whiteSpace=wrap;html=1;" parent="1" vertex="1">
          <mxGeometry x="345" y="610" width="90" height="40" as="geometry" />
        </mxCell>
        <mxCell id="XiwVOY6yBHKLAJSCQx8u-1" value="mysql存储" style="rounded=0;whiteSpace=wrap;html=1;verticalAlign=top;" vertex="1" parent="1">
          <mxGeometry x="500" y="570" width="140" height="100" as="geometry" />
        </mxCell>
        <mxCell id="XiwVOY6yBHKLAJSCQx8u-3" value="recall_case_schedule" style="rounded=0;whiteSpace=wrap;html=1;" vertex="1" parent="1">
          <mxGeometry x="525" y="610" width="90" height="40" as="geometry" />
        </mxCell>
        <mxCell id="XiwVOY6yBHKLAJSCQx8u-4" style="edgeStyle=orthogonalEdgeStyle;rounded=0;orthogonalLoop=1;jettySize=auto;html=1;exitX=0.5;exitY=0;exitDx=0;exitDy=0;dashed=1;" edge="1" parent="1">
          <mxGeometry relative="1" as="geometry">
            <mxPoint x="564.5" y="610" as="sourcePoint" />
            <mxPoint x="564.5" y="480" as="targetPoint" />
          </mxGeometry>
        </mxCell>
        <mxCell id="XiwVOY6yBHKLAJSCQx8u-5" value="Job频率信息初始化" style="edgeLabel;html=1;align=center;verticalAlign=middle;resizable=0;points=[];" vertex="1" connectable="0" parent="XiwVOY6yBHKLAJSCQx8u-4">
          <mxGeometry x="0.1231" y="-1" relative="1" as="geometry">
            <mxPoint as="offset" />
          </mxGeometry>
        </mxCell>
      </root>
    </mxGraphModel>
  </diagram>
  <diagram id="ve3yZ1LFiV5sFqz1L6Oh" name="处理流程">
    <mxGraphModel dx="1434" dy="786" grid="1" gridSize="10" guides="1" tooltips="1" connect="1" arrows="1" fold="1" page="1" pageScale="1" pageWidth="827" pageHeight="1169" math="0" shadow="0">
      <root>
        <mxCell id="0" />
        <mxCell id="1" parent="0" />
        <mxCell id="RontMEDkNK1H9GaLp4c8-1" value="限制频率" style="swimlane;childLayout=stackLayout;resizeParent=1;resizeParentMax=0;startSize=20;html=1;" vertex="1" parent="1">
          <mxGeometry x="80" y="100" width="950" height="890" as="geometry" />
        </mxCell>
        <mxCell id="RontMEDkNK1H9GaLp4c8-2" value="recall-schedule" style="swimlane;startSize=20;html=1;" vertex="1" parent="RontMEDkNK1H9GaLp4c8-1">
          <mxGeometry y="20" width="150" height="870" as="geometry" />
        </mxCell>
        <mxCell id="RontMEDkNK1H9GaLp4c8-8" value="立案成功" style="rounded=0;whiteSpace=wrap;html=1;" vertex="1" parent="RontMEDkNK1H9GaLp4c8-2">
          <mxGeometry x="30" y="50" width="85" height="40" as="geometry" />
        </mxCell>
        <mxCell id="RontMEDkNK1H9GaLp4c8-26" value="推送前的过滤" style="rounded=0;whiteSpace=wrap;html=1;" vertex="1" parent="RontMEDkNK1H9GaLp4c8-2">
          <mxGeometry x="30" y="400" width="85" height="40" as="geometry" />
        </mxCell>
        <mxCell id="RontMEDkNK1H9GaLp4c8-32" value="" style="edgeStyle=orthogonalEdgeStyle;rounded=0;orthogonalLoop=1;jettySize=auto;html=1;" edge="1" parent="RontMEDkNK1H9GaLp4c8-2" source="RontMEDkNK1H9GaLp4c8-27" target="RontMEDkNK1H9GaLp4c8-31">
          <mxGeometry relative="1" as="geometry" />
        </mxCell>
        <mxCell id="RontMEDkNK1H9GaLp4c8-27" value="获取限频配置信息并缓存" style="rounded=0;whiteSpace=wrap;html=1;" vertex="1" parent="RontMEDkNK1H9GaLp4c8-2">
          <mxGeometry x="30" y="480" width="85" height="40" as="geometry" />
        </mxCell>
        <mxCell id="RontMEDkNK1H9GaLp4c8-28" value="" style="edgeStyle=orthogonalEdgeStyle;rounded=0;orthogonalLoop=1;jettySize=auto;html=1;" edge="1" parent="RontMEDkNK1H9GaLp4c8-2" source="RontMEDkNK1H9GaLp4c8-26" target="RontMEDkNK1H9GaLp4c8-27">
          <mxGeometry relative="1" as="geometry" />
        </mxCell>
        <mxCell id="RontMEDkNK1H9GaLp4c8-36" value="" style="edgeStyle=orthogonalEdgeStyle;rounded=0;orthogonalLoop=1;jettySize=auto;html=1;" edge="1" parent="RontMEDkNK1H9GaLp4c8-2" source="RontMEDkNK1H9GaLp4c8-31" target="RontMEDkNK1H9GaLp4c8-35">
          <mxGeometry relative="1" as="geometry" />
        </mxCell>
        <mxCell id="RontMEDkNK1H9GaLp4c8-31" value="获取模型分" style="rounded=0;whiteSpace=wrap;html=1;" vertex="1" parent="RontMEDkNK1H9GaLp4c8-2">
          <mxGeometry x="30" y="570" width="85" height="40" as="geometry" />
        </mxCell>
        <mxCell id="RontMEDkNK1H9GaLp4c8-40" value="" style="edgeStyle=orthogonalEdgeStyle;rounded=0;orthogonalLoop=1;jettySize=auto;html=1;" edge="1" parent="RontMEDkNK1H9GaLp4c8-2" source="RontMEDkNK1H9GaLp4c8-35" target="RontMEDkNK1H9GaLp4c8-39">
          <mxGeometry relative="1" as="geometry" />
        </mxCell>
        <mxCell id="RontMEDkNK1H9GaLp4c8-35" value="获取频率信息" style="rounded=0;whiteSpace=wrap;html=1;" vertex="1" parent="RontMEDkNK1H9GaLp4c8-2">
          <mxGeometry x="30" y="660" width="85" height="40" as="geometry" />
        </mxCell>
        <mxCell id="RontMEDkNK1H9GaLp4c8-39" value="计算是否超过频率" style="rounded=0;whiteSpace=wrap;html=1;" vertex="1" parent="RontMEDkNK1H9GaLp4c8-2">
          <mxGeometry x="30" y="750" width="85" height="40" as="geometry" />
        </mxCell>
        <mxCell id="RontMEDkNK1H9GaLp4c8-41" value="立案阶段" style="text;html=1;align=left;verticalAlign=middle;resizable=0;points=[];autosize=1;strokeColor=none;fillColor=none;" vertex="1" parent="RontMEDkNK1H9GaLp4c8-2">
          <mxGeometry y="350" width="70" height="30" as="geometry" />
        </mxCell>
        <mxCell id="RontMEDkNK1H9GaLp4c8-42" value="推送阶段" style="text;html=1;align=left;verticalAlign=middle;resizable=0;points=[];autosize=1;strokeColor=none;fillColor=none;" vertex="1" parent="RontMEDkNK1H9GaLp4c8-2">
          <mxGeometry y="840" width="70" height="30" as="geometry" />
        </mxCell>
        <mxCell id="RontMEDkNK1H9GaLp4c8-3" value="kafka" style="swimlane;startSize=20;html=1;" vertex="1" parent="RontMEDkNK1H9GaLp4c8-1">
          <mxGeometry x="150" y="20" width="170" height="870" as="geometry" />
        </mxCell>
        <mxCell id="RontMEDkNK1H9GaLp4c8-13" style="edgeStyle=orthogonalEdgeStyle;rounded=0;orthogonalLoop=1;jettySize=auto;html=1;entryX=0.5;entryY=0;entryDx=0;entryDy=0;" edge="1" parent="RontMEDkNK1H9GaLp4c8-3" source="RontMEDkNK1H9GaLp4c8-9" target="RontMEDkNK1H9GaLp4c8-12">
          <mxGeometry relative="1" as="geometry" />
        </mxCell>
        <mxCell id="RontMEDkNK1H9GaLp4c8-9" value="立案消息" style="rounded=0;whiteSpace=wrap;html=1;" vertex="1" parent="RontMEDkNK1H9GaLp4c8-3">
          <mxGeometry x="45" y="50" width="85" height="40" as="geometry" />
        </mxCell>
        <mxCell id="RontMEDkNK1H9GaLp4c8-12" value="加载模型分" style="rounded=0;whiteSpace=wrap;html=1;" vertex="1" parent="RontMEDkNK1H9GaLp4c8-3">
          <mxGeometry x="45" y="130" width="85" height="40" as="geometry" />
        </mxCell>
        <mxCell id="RontMEDkNK1H9GaLp4c8-4" value="mysql" style="swimlane;startSize=20;html=1;" vertex="1" parent="RontMEDkNK1H9GaLp4c8-1">
          <mxGeometry x="320" y="20" width="160" height="870" as="geometry" />
        </mxCell>
        <mxCell id="RontMEDkNK1H9GaLp4c8-29" value="获取配置信息" style="rounded=0;whiteSpace=wrap;html=1;" vertex="1" parent="RontMEDkNK1H9GaLp4c8-4">
          <mxGeometry x="37.5" y="480" width="85" height="40" as="geometry" />
        </mxCell>
        <mxCell id="RontMEDkNK1H9GaLp4c8-5" value="redis" style="swimlane;startSize=20;html=1;" vertex="1" parent="RontMEDkNK1H9GaLp4c8-1">
          <mxGeometry x="480" y="20" width="160" height="870" as="geometry" />
        </mxCell>
        <mxCell id="RontMEDkNK1H9GaLp4c8-20" value="写入模型分" style="rounded=0;whiteSpace=wrap;html=1;" vertex="1" parent="RontMEDkNK1H9GaLp4c8-5">
          <mxGeometry x="37.5" y="180" width="85" height="40" as="geometry" />
        </mxCell>
        <mxCell id="RontMEDkNK1H9GaLp4c8-23" value="写入频率信息" style="rounded=0;whiteSpace=wrap;html=1;" vertex="1" parent="RontMEDkNK1H9GaLp4c8-5">
          <mxGeometry x="37.5" y="300" width="85" height="40" as="geometry" />
        </mxCell>
        <mxCell id="RontMEDkNK1H9GaLp4c8-33" value="获取模型分" style="rounded=0;whiteSpace=wrap;html=1;" vertex="1" parent="RontMEDkNK1H9GaLp4c8-5">
          <mxGeometry x="30" y="570" width="85" height="40" as="geometry" />
        </mxCell>
        <mxCell id="RontMEDkNK1H9GaLp4c8-37" value="获取频率信息" style="rounded=0;whiteSpace=wrap;html=1;" vertex="1" parent="RontMEDkNK1H9GaLp4c8-5">
          <mxGeometry x="30" y="660" width="85" height="40" as="geometry" />
        </mxCell>
        <mxCell id="RontMEDkNK1H9GaLp4c8-6" value="风控" style="swimlane;startSize=20;html=1;" vertex="1" parent="RontMEDkNK1H9GaLp4c8-1">
          <mxGeometry x="640" y="20" width="160" height="870" as="geometry" />
        </mxCell>
        <mxCell id="RontMEDkNK1H9GaLp4c8-14" value="获取模型分" style="rounded=0;whiteSpace=wrap;html=1;" vertex="1" parent="RontMEDkNK1H9GaLp4c8-6">
          <mxGeometry x="40" y="130" width="85" height="40" as="geometry" />
        </mxCell>
        <mxCell id="RontMEDkNK1H9GaLp4c8-7" value="hbase" style="swimlane;startSize=20;html=1;" vertex="1" parent="RontMEDkNK1H9GaLp4c8-1">
          <mxGeometry x="800" y="20" width="150" height="870" as="geometry" />
        </mxCell>
        <mxCell id="RontMEDkNK1H9GaLp4c8-16" value="加载频率信息" style="rounded=0;whiteSpace=wrap;html=1;" vertex="1" parent="RontMEDkNK1H9GaLp4c8-7">
          <mxGeometry x="-605" y="240" width="85" height="40" as="geometry" />
        </mxCell>
        <mxCell id="RontMEDkNK1H9GaLp4c8-18" value="获取频率信息" style="rounded=0;whiteSpace=wrap;html=1;" vertex="1" parent="RontMEDkNK1H9GaLp4c8-7">
          <mxGeometry x="32.5" y="240" width="85" height="40" as="geometry" />
        </mxCell>
        <mxCell id="RontMEDkNK1H9GaLp4c8-19" value="" style="edgeStyle=orthogonalEdgeStyle;rounded=0;orthogonalLoop=1;jettySize=auto;html=1;" edge="1" parent="RontMEDkNK1H9GaLp4c8-7" source="RontMEDkNK1H9GaLp4c8-16" target="RontMEDkNK1H9GaLp4c8-18">
          <mxGeometry relative="1" as="geometry" />
        </mxCell>
        <mxCell id="RontMEDkNK1H9GaLp4c8-10" value="" style="edgeStyle=orthogonalEdgeStyle;rounded=0;orthogonalLoop=1;jettySize=auto;html=1;" edge="1" parent="RontMEDkNK1H9GaLp4c8-1" source="RontMEDkNK1H9GaLp4c8-8" target="RontMEDkNK1H9GaLp4c8-9">
          <mxGeometry relative="1" as="geometry" />
        </mxCell>
        <mxCell id="RontMEDkNK1H9GaLp4c8-11" value="发布" style="edgeLabel;html=1;align=center;verticalAlign=middle;resizable=0;points=[];" vertex="1" connectable="0" parent="RontMEDkNK1H9GaLp4c8-10">
          <mxGeometry x="-0.2" y="1" relative="1" as="geometry">
            <mxPoint as="offset" />
          </mxGeometry>
        </mxCell>
        <mxCell id="RontMEDkNK1H9GaLp4c8-15" value="" style="edgeStyle=orthogonalEdgeStyle;rounded=0;orthogonalLoop=1;jettySize=auto;html=1;" edge="1" parent="RontMEDkNK1H9GaLp4c8-1" source="RontMEDkNK1H9GaLp4c8-12" target="RontMEDkNK1H9GaLp4c8-14">
          <mxGeometry relative="1" as="geometry" />
        </mxCell>
        <mxCell id="RontMEDkNK1H9GaLp4c8-21" style="edgeStyle=orthogonalEdgeStyle;rounded=0;orthogonalLoop=1;jettySize=auto;html=1;entryX=0;entryY=0.5;entryDx=0;entryDy=0;exitX=0.75;exitY=1;exitDx=0;exitDy=0;" edge="1" parent="RontMEDkNK1H9GaLp4c8-1" source="RontMEDkNK1H9GaLp4c8-12" target="RontMEDkNK1H9GaLp4c8-20">
          <mxGeometry relative="1" as="geometry" />
        </mxCell>
        <mxCell id="RontMEDkNK1H9GaLp4c8-22" style="edgeStyle=orthogonalEdgeStyle;rounded=0;orthogonalLoop=1;jettySize=auto;html=1;" edge="1" parent="RontMEDkNK1H9GaLp4c8-1" source="RontMEDkNK1H9GaLp4c8-12" target="RontMEDkNK1H9GaLp4c8-16">
          <mxGeometry relative="1" as="geometry" />
        </mxCell>
        <mxCell id="RontMEDkNK1H9GaLp4c8-24" style="edgeStyle=orthogonalEdgeStyle;rounded=0;orthogonalLoop=1;jettySize=auto;html=1;exitX=0.75;exitY=1;exitDx=0;exitDy=0;entryX=0;entryY=0.5;entryDx=0;entryDy=0;" edge="1" parent="RontMEDkNK1H9GaLp4c8-1" source="RontMEDkNK1H9GaLp4c8-16" target="RontMEDkNK1H9GaLp4c8-23">
          <mxGeometry relative="1" as="geometry" />
        </mxCell>
        <mxCell id="RontMEDkNK1H9GaLp4c8-25" value="" style="endArrow=none;html=1;rounded=0;" edge="1" parent="RontMEDkNK1H9GaLp4c8-1">
          <mxGeometry width="50" height="50" relative="1" as="geometry">
            <mxPoint y="400" as="sourcePoint" />
            <mxPoint x="950" y="400" as="targetPoint" />
          </mxGeometry>
        </mxCell>
        <mxCell id="RontMEDkNK1H9GaLp4c8-30" value="" style="edgeStyle=orthogonalEdgeStyle;rounded=0;orthogonalLoop=1;jettySize=auto;html=1;" edge="1" parent="RontMEDkNK1H9GaLp4c8-1" source="RontMEDkNK1H9GaLp4c8-27" target="RontMEDkNK1H9GaLp4c8-29">
          <mxGeometry relative="1" as="geometry" />
        </mxCell>
        <mxCell id="RontMEDkNK1H9GaLp4c8-34" value="" style="edgeStyle=orthogonalEdgeStyle;rounded=0;orthogonalLoop=1;jettySize=auto;html=1;" edge="1" parent="RontMEDkNK1H9GaLp4c8-1" source="RontMEDkNK1H9GaLp4c8-31" target="RontMEDkNK1H9GaLp4c8-33">
          <mxGeometry relative="1" as="geometry" />
        </mxCell>
        <mxCell id="RontMEDkNK1H9GaLp4c8-38" value="" style="edgeStyle=orthogonalEdgeStyle;rounded=0;orthogonalLoop=1;jettySize=auto;html=1;" edge="1" parent="RontMEDkNK1H9GaLp4c8-1" source="RontMEDkNK1H9GaLp4c8-35" target="RontMEDkNK1H9GaLp4c8-37">
          <mxGeometry relative="1" as="geometry" />
        </mxCell>
      </root>
    </mxGraphModel>
  </diagram>
</mxfile>
